<?xml version="1.0" standalone="no"?>
<!DOCTYPE svg PUBLIC "-//W3C//DTD SVG 20010904//EN"
 "http://www.w3.org/TR/2001/REC-SVG-20010904/DTD/svg10.dtd">
<svg version="1.0" xmlns="http://www.w3.org/2000/svg"
 width="441.000000pt" height="57.000000pt" viewBox="0 0 441.000000 57.000000"
 preserveAspectRatio="xMidYMid meet">

<g transform="translate(0.000000,57.000000) scale(0.100000,-0.100000)"
fill="#000000" stroke="none">
<path d="M143 491 c-71 -33 -86 -100 -33 -145 33 -27 53 -34 199 -65 106 -23
138 -40 147 -77 15 -58 -55 -88 -192 -82 -113 5 -147 23 -152 81 -3 29 -8 37
-23 37 -17 0 -19 -7 -19 -75 0 -68 2 -75 20 -75 11 0 20 6 20 14 0 11 7 11 42
-2 63 -22 211 -22 271 1 54 22 77 48 77 93 0 63 -51 92 -241 134 -99 22 -139
45 -139 80 0 47 77 75 182 67 81 -7 127 -31 135 -69 3 -16 12 -28 19 -28 11 0
14 17 14 65 0 63 -10 81 -28 50 -7 -14 -13 -14 -51 0 -63 22 -195 20 -248 -4z"/>
<path d="M723 496 c-104 -33 -147 -98 -141 -212 3 -63 7 -77 34 -110 50 -62
113 -88 214 -88 69 -1 94 3 132 22 41 20 88 66 88 86 0 17 -39 2 -63 -24 -55
-58 -187 -69 -277 -23 -66 34 -90 75 -90 151 0 86 42 143 124 167 125 37 257
-5 268 -85 2 -14 11 -26 21 -28 16 -3 18 4 15 74 -2 53 -7 79 -16 82 -7 2 -16
-5 -18 -16 -6 -19 -6 -19 -55 -1 -58 22 -172 24 -236 5z"/>
<path d="M1120 490 c0 -17 6 -20 40 -20 l40 0 0 -175 0 -175 -40 0 c-29 0 -40
-4 -40 -15 0 -12 18 -15 105 -15 85 0 105 3 105 14 0 10 -14 16 -42 18 l-43 3
-3 83 -3 82 186 0 186 0 -3 -82 -3 -83 -37 -3 c-25 -2 -38 -8 -38 -18 0 -12
17 -14 102 -12 67 2 103 7 105 15 3 8 -11 13 -39 15 l-43 3 -3 172 -2 172 42
3 c30 2 43 7 43 18 0 12 -19 16 -102 18 -98 3 -103 2 -103 -18 0 -17 6 -20 40
-20 l40 0 0 -70 0 -70 -185 0 -185 0 0 70 0 70 46 0 c38 0 45 3 42 18 -3 15
-17 17 -106 20 -97 3 -102 2 -102 -18z"/>
<path d="M2020 490 c0 -17 6 -20 40 -20 l40 0 -2 -172 -3 -173 -37 -3 c-25 -2
-38 -8 -38 -18 0 -11 20 -14 105 -14 85 0 105 3 105 14 0 10 -14 16 -42 18
l-43 3 -3 153 c-1 85 1 151 6 149 4 -3 55 -80 112 -171 83 -131 109 -166 125
-164 13 2 52 55 120 161 56 87 107 163 114 170 9 9 11 -23 9 -143 l-3 -155
-42 -3 c-29 -2 -43 -8 -43 -18 0 -11 20 -14 105 -14 85 0 105 3 105 14 0 10
-14 16 -42 18 l-43 3 0 170 0 170 43 3 c34 3 42 7 42 23 0 17 -7 19 -60 19
-70 0 -54 17 -197 -210 -54 -85 -103 -155 -108 -154 -5 0 -62 81 -126 180
l-115 179 -62 3 c-57 3 -62 1 -62 -18z"/>
<path d="M2910 490 c0 -18 7 -20 56 -20 l56 0 -90 -172 -90 -173 -41 -3 c-28
-2 -41 -8 -41 -18 0 -11 20 -14 105 -14 87 0 105 3 105 15 0 11 -11 15 -40 15
-47 0 -49 8 -15 67 l26 43 122 0 122 0 27 -49 c15 -27 24 -52 21 -55 -4 -3
-24 -6 -45 -6 -27 0 -38 -4 -38 -15 0 -12 18 -15 105 -15 85 0 105 3 105 14 0
10 -13 16 -37 18 l-38 3 -87 165 c-47 91 -93 177 -102 193 -15 26 -18 27 -101
27 -78 0 -85 -2 -85 -20z m210 -132 c22 -43 40 -80 40 -83 0 -3 -45 -5 -100
-5 l-100 0 36 72 c20 40 43 83 52 96 18 27 17 29 72 -80z"/>
<path d="M3377 503 c-20 -19 -5 -33 38 -33 l45 0 -2 -172 -3 -173 -42 -3 c-29
-2 -43 -8 -43 -18 0 -12 36 -14 230 -14 l230 0 0 65 c0 51 -3 65 -15 65 -11 0
-15 -12 -15 -45 l0 -45 -150 0 -150 0 0 170 0 170 40 0 c33 0 40 3 40 20 0 19
-7 20 -98 20 -54 0 -102 -3 -105 -7z"/>
<path d="M3887 503 c-20 -19 -5 -33 38 -33 l45 0 -2 -172 -3 -173 -42 -3 c-29
-2 -43 -8 -43 -18 0 -12 36 -14 230 -14 l230 0 0 65 c0 58 -2 65 -20 65 -17 0
-20 -7 -20 -45 l0 -45 -150 0 -150 0 2 168 3 167 43 3 c34 3 42 7 42 23 0 17
-8 19 -98 19 -54 0 -102 -3 -105 -7z"/>
</g>
</svg>
